<?xml version="1.0" encoding="utf-8"?>
<!-- Generator: Adobe Illustrator 22.1.0, SVG Export Plug-In . SVG Version: 6.00 Build 0)  -->
<svg version="1.1" id="Layer_1" xmlns="http://www.w3.org/2000/svg" xmlns:xlink="http://www.w3.org/1999/xlink" x="0px" y="0px"
	 viewBox="0 0 120 60" style="enable-background:new 0 0 120 60;" xml:space="preserve">
<style type="text/css">
	.st0{fill:#007CC3;}
	.st1{fill:#FFFFFF;}
</style>
<rect class="st0" width="120" height="60"/>
<g>
	<g>
		<g>
			<path class="st1" d="M87.2,25.8h2.9c1.4,0,2.5,1,2.5,2.5c0,1.5-1,2.5-2.5,2.5h-1.8v2.9h-1.1V25.8z M89.9,29.8
				c0.9,0,1.5-0.6,1.5-1.5s-0.6-1.5-1.5-1.5h-1.6v3H89.9z"/>
			<path class="st1" d="M96.7,30.1h0.2V30c0-0.9-0.5-1.2-1.2-1.2c-0.9,0-1.6,0.5-1.6,0.5l-0.4-0.8c0,0,0.8-0.7,2.1-0.7
				c1.4,0,2.2,0.8,2.2,2.2v3.6h-1v-0.5c0-0.3,0-0.4,0-0.4h0c0,0-0.5,1.1-1.8,1.1c-1,0-1.9-0.6-1.9-1.7
				C93.3,30.2,95.7,30.1,96.7,30.1z M95.4,32.9c0.9,0,1.5-1,1.5-1.8v-0.2h-0.3c-0.8,0-2.3,0.1-2.3,1.1
				C94.4,32.4,94.7,32.9,95.4,32.9z"/>
			<path class="st1" d="M99.6,28h1v0.7c0,0.2,0,0.4,0,0.4h0c0.2-0.5,0.9-1.3,2.1-1.3c1.3,0,1.9,0.7,1.9,2.2v3.6h-1.1v-3.4
				c0-0.8-0.2-1.4-1.1-1.4c-0.9,0-1.6,0.6-1.8,1.4c-0.1,0.2-0.1,0.5-0.1,0.8v2.6h-1.1V28z"/>
			<path class="st1" d="M106.4,25.8h1.1v4.3h0.8l1.5-2.1h1.2l-1.9,2.5v0l2.1,3.1H110l-1.7-2.7h-0.8v2.7h-1.1V25.8z"/>
		</g>
	</g>
	<g>
		<path class="st1" d="M66.1,22.3c-4.1,0-7.1,1.6-8.4,4.1c-1.3-2.5-4.3-4.1-8.4-4.1c-4.2,0-7.2,1.7-8.5,4.2
			c-1.3-2.6-4.3-4.2-8.5-4.2c-5.8,0-9.2,3.2-9.2,7.4c0,0.5,0.1,1,0.2,1.5c-0.6,1.1-2,2.5-5.3,2.5c-2.8,0-3.9-1.9-3.9-3.9
			c0-2,1.1-3.9,3.9-3.9c1.6,0,2.7,0.6,3.3,1.6l2.3-3.8c-1.5-0.8-3.3-1.3-5.5-1.3c-5.8,0-9.2,3.2-9.2,7.4c0,4.3,3.4,7.4,9.2,7.4
			c3.5,0,5.8-1,7.4-2.3c1.6,1.4,4,2.3,7,2.3c4.2,0,7.2-1.7,8.5-4.2c1.3,2.6,4.3,4.2,8.5,4.2c4.1,0,7-1.6,8.3-4v6.6h4.6v-3.1
			c1.1,0.4,2.4,0.6,3.9,0.6c5.8,0,9.2-3.2,9.2-7.4C75.4,25.4,71.9,22.3,66.1,22.3 M32.4,33.7c-2.8,0-3.9-1.9-3.9-3.9
			c0-2,1.1-3.9,3.9-3.9c2.8,0,3.9,1.9,3.9,3.9C36.3,31.8,35.2,33.7,32.4,33.7 M49.3,33.7c-2.8,0-3.9-1.9-3.9-3.9
			c0-2,1.1-3.9,3.9-3.9c2.8,0,3.9,1.9,3.9,3.9C53.2,31.8,52.1,33.7,49.3,33.7 M66.1,33.7c-0.6,0-1.2-0.1-1.7-0.3l-2.2,2.4v-3.8v-2.2
			c0-2,1.1-3.9,3.9-3.9c2.8,0,3.9,1.9,3.9,3.9C70,31.8,68.9,33.7,66.1,33.7"/>
	</g>
	<path class="st1" d="M80.7,24.4h0.9v10.8h-0.9V24.4z"/>
</g>
</svg>
